<svg xmlns="http://www.w3.org/2000/svg" xmlns:xlink="http://www.w3.org/1999/xlink" version="1.1" x="0px" y="0px" viewBox="0 0 100 125" enable-background="new 0 0 100 100" xml:space="preserve"><path fill="#000000" d="M38.937,17.051H20.573c-2.2,0-4,1.8-4,4v12.975c0,2.2,1.8,4,4,4h18.363c2.2,0,4-1.8,4-4V21.051  C42.937,18.851,41.137,17.051,38.937,17.051z"/><path fill="#000000" d="M76.829,20.711c-1.692-1.69-4.435-1.691-6.123,0c-1.692,1.69-1.69,4.431,0,6.123l5.868,5.869  c-3.615,1.11-6.243,4.474-6.243,8.455c0,4.884,3.959,8.843,8.844,8.843c1.522,0,2.956-0.385,4.207-1.063V83  c0,4.078-3.306,7.385-7.384,7.385S68.613,87.078,68.613,83h-0.002V59.703c0-6.639-5.383-12.021-12.021-12.021h-2.568V17.03  c0-6.551-5.492-12-12.042-12H17.02C10.469,5.03,5,10.5,5,17.051v77.971h49.021V52.318h2.568c4.078,0,7.385,3.307,7.385,7.385V83  h0.002c0,6.639,5.383,12.021,12.021,12.021S88.02,89.639,88.02,83V31.902L76.829,20.711z M48.02,89H11V17.051V17.01  c0-3.135,2.885-5.979,6.02-5.979h24.959h0.041c3.135,0,6,2.865,6,6V89z M79.175,45.137c-2.198,0-3.979-1.782-3.979-3.98  c0-2.198,1.781-3.98,3.979-3.98s3.979,1.782,3.979,3.98C83.154,43.355,81.373,45.137,79.175,45.137z"/></svg>